HIERARCHY
ROOT Hips
{
	OFFSET	0.00	0.00	0.00
	CHANNELS 6 Xposition Yposition Zposition Zrotation Xrotation Yrotation
	JOINT LeftUpLeg
	{
		OFFSET	 0.126116	-0.014019	-0.065224
		CHANNELS 3 Zrotation Xrotation Yrotation
		JOINT LeftLeg
		{
			OFFSET	 0.000000	 0.000000	 0.569914
			CHANNELS 3 Zrotation Xrotation Yrotation
			JOINT LeftFoot
			{
				OFFSET	 0.000000	 0.000000	 0.544423
				CHANNELS 3 Zrotation Xrotation Yrotation
				JOINT LeftToeBase
				{
					OFFSET	 0.000000	 0.000000	 0.207117
					CHANNELS 3 Zrotation Xrotation Yrotation
					End Site
					{
						OFFSET	 0.000000	 0.000000	 0.207117
					}
				}
			}
		}
	}
	JOINT RightUpLeg
	{
		OFFSET	-0.124023	-0.008373	-0.065224
		CHANNELS 3 Zrotation Xrotation Yrotation
		JOINT RightLeg
		{
			OFFSET	 0.000000	 0.000000	 0.570047
			CHANNELS 3 Zrotation Xrotation Yrotation
			JOINT RightFoot
			{
				OFFSET	 0.000000	 0.000000	 0.544354
				CHANNELS 3 Zrotation Xrotation Yrotation
				JOINT RightToeBase
				{
					OFFSET	 0.000000	 0.000000	 0.207540
					CHANNELS 3 Zrotation Xrotation Yrotation
					End Site
					{
						OFFSET	 0.000000	 0.000000	 0.207540
					}
				}
			}
		}
	}
	JOINT Spine
	{
		OFFSET	 0.000184	-0.007763	 0.117403
		CHANNELS 3 Zrotation Xrotation Yrotation
		JOINT Spine1
		{
			OFFSET	 0.000000	 0.000000	 0.137269
			CHANNELS 3 Zrotation Xrotation Yrotation
			JOINT Spine2
			{
				OFFSET	 0.000000	 0.000000	 0.156879
				CHANNELS 3 Zrotation Xrotation Yrotation
				JOINT LeftShoulder
				{
					OFFSET	 0.080501	-0.002496	 0.160144
					CHANNELS 3 Zrotation Xrotation Yrotation
					JOINT LeftArm
					{
						OFFSET	 0.000000	 0.000000	 0.164363
						CHANNELS 3 Zrotation Xrotation Yrotation
						JOINT LeftForeArm
						{
							OFFSET	 0.000000	 0.000000	 0.364576
							CHANNELS 3 Zrotation Xrotation Yrotation
							JOINT LeftHand
							{
								OFFSET	 0.000000	 0.000000	 0.360812
								CHANNELS 3 Zrotation Xrotation Yrotation
								JOINT LeftHandIndex1
								{
									OFFSET	 0.000000	 0.000000	 0.086006
									CHANNELS 3 Zrotation Xrotation Yrotation
									JOINT LeftHandIndex2
									{
										OFFSET	 0.000000	 0.000000	 0.047236
										CHANNELS 3 Zrotation Xrotation Yrotation
										JOINT LeftHandIndex3
										{
											OFFSET	-0.004284	-0.000551	 0.038166
											CHANNELS 3 Zrotation Xrotation Yrotation
											End Site
											{
												OFFSET	-0.004284	-0.000551	 0.038166
											}
										}
									}
								}
							}
						}
					}
				}
				JOINT Neck
				{
					OFFSET	 0.000000	 0.000000	 0.176489
					CHANNELS 3 Zrotation Xrotation Yrotation
					JOINT Head
					{
						OFFSET	 0.000000	-0.001747	 0.077940
						CHANNELS 3 Zrotation Xrotation Yrotation
						End Site
						{
							OFFSET	 0.000000	-0.001747	 0.077940
						}
					}
				}
				JOINT RightShoulder
				{
					OFFSET	-0.080363	 0.000306	 0.159706
					CHANNELS 3 Zrotation Xrotation Yrotation
					JOINT RightArm
					{
						OFFSET	 0.000000	 0.000000	 0.164196
						CHANNELS 3 Zrotation Xrotation Yrotation
						JOINT RightForeArm
						{
							OFFSET	 0.000000	 0.000000	 0.365611
							CHANNELS 3 Zrotation Xrotation Yrotation
							JOINT RightHand
							{
								OFFSET	 0.000000	 0.000000	 0.360648
								CHANNELS 3 Zrotation Xrotation Yrotation
								JOINT RightHandIndex1
								{
									OFFSET	 0.000000	 0.000000	 0.069977
									CHANNELS 3 Zrotation Xrotation Yrotation
									JOINT RightHandIndex2
									{
										OFFSET	 0.000000	 0.000000	 0.052305
										CHANNELS 3 Zrotation Xrotation Yrotation
										JOINT RightHandIndex3
										{
											OFFSET	 0.009002	-0.000782	 0.042196
											CHANNELS 3 Zrotation Xrotation Yrotation
											End Site
											{
												OFFSET	 0.009002	-0.000782	 0.042196
											}
										}
									}
								}
							}
						}
					}
				}
			}
		}
	}
}
MOTION
Frames:    4
Frame Time: 0.03333334
-0.000565	 0.016418	 1.222793	 0.004035	 0.007284	-0.099060	 9.311155	-13.747500	 177.426800	 0.795536	-35.459020	-2.348206	-27.085390	 81.874960	 21.628020	-2.385833	 28.452760	 0.000004	-9.406250	-13.854980	-177.222000	-0.785135	-35.650150	 2.321339	 27.191000	 82.129370	-21.862260	 2.384658	 28.388730	 0.000004	-11.053200	 2.724059	-0.018722	 1.186202	 3.667118	 0.482931	-3.563714	-4.621467	-0.788227	-91.776230	 78.527470	-180.000000	 50.914430	 36.147730	-51.440690	-24.843570	 2.968063	-9.178100	-28.595400	 2.127260	-4.251836	-2.635965	 4.993658	 6.788941	-5.165319	 0.784187	 3.516649	-5.225038	 0.466231	 0.424329	-0.000002	-3.783157	-0.089647	-3.453944	 4.936063	 0.148902	 89.782150	 78.203870	 180.000000	 1.234672	 12.633600	 106.953800	-17.611130	 2.639883	 9.292924	 3.703067	 1.622363	-6.108443	 6.112037	 4.509576	-0.364401	 4.968462	 1.518543	-9.347576	 5.168945	 0.703820	 2.021906
-0.000584	 0.015727	 1.223503	 0.004035	 0.007284	-0.099064	 9.317314	-13.621650	 177.419200	 0.807706	-35.215880	-2.327168	-26.666280	 81.774170	 21.203920	-2.385833	 28.452760	 0.000004	-9.413089	-13.696690	-177.209700	-0.797750	-35.395690	 2.299627	 26.851210	 82.045760	-21.518810	 2.384658	 28.388730	 0.000004	-10.138490	 2.724058	-0.018718	 1.186199	 3.667129	 0.482962	-3.563719	-4.621476	-0.788244	-91.776160	 78.527430	 180.000000	 50.937070	 36.128010	-51.455910	-25.040800	 3.033401	-9.274632	-28.593890	 2.127446	-4.251588	-2.635965	 4.993658	 6.788941	-5.165319	 0.784187	 3.516649	-5.225038	 0.466231	 0.424329	-0.000002	-3.783157	-0.089647	-3.453945	 4.936062	 0.148902	 89.782190	 78.203900	 179.999900	 1.256820	 12.863780	 107.019100	-17.584380	 2.703656	 9.387715	 3.720508	 1.486654	-6.179916	 6.112037	 4.509576	-0.364401	 4.968462	 1.518543	-9.347576	 5.168945	 0.703820	 2.021906
-0.000593	 0.015155	 1.224037	 0.004035	 0.007284	-0.099064	 9.321988	-13.525680	 177.413300	 0.816833	-35.031540	-2.311304	-26.357640	 81.697920	 20.891550	-2.385833	 28.452760	 0.000004	-9.418315	-13.574140	-177.199800	-0.807260	-35.201800	 2.283175	 26.605360	 81.983470	-21.270280	 2.384658	 28.388730	 0.000004	-9.192597	 2.724058	-0.018718	 1.186201	 3.667125	 0.482959	-3.563720	-4.621473	-0.788245	-91.776150	 78.527430	 180.000000	 51.002090	 36.122780	-51.534660	-25.192170	 3.082141	-9.346131	-28.601470	 2.126417	-4.252805	-2.635965	 4.993658	 6.788941	-5.165319	 0.784187	 3.516649	-5.225038	 0.466231	 0.424329	-0.000002	-3.783157	-0.089647	-3.453943	 4.936063	 0.148902	 89.782110	 78.203890	 180.000000	 1.185131	 13.098520	 107.050600	-17.590010	 2.752917	 9.463614	 3.765408	 1.403463	-6.235420	 6.112037	 4.509576	-0.364401	 4.968462	 1.518543	-9.347576	 5.168945	 0.703820	 2.021906
-0.000575	 0.014500	 1.224516	 0.004041	 0.007284	-0.099064	 9.326200	-13.437270	 177.407700	 0.825018	-34.864770	-2.297012	-26.089550	 81.630080	 20.620160	-2.385833	 28.452760	 0.000004	-9.423107	-13.456370	-177.189900	-0.815886	-35.024140	 2.268170	 26.406130	 81.930790	-21.068890	 2.384658	 28.388730	 0.000004	-7.925494	 2.724071	-0.018717	 1.186196	 3.667090	 0.482961	-3.563710	-4.621448	-0.788240	-91.776170	 78.527450	 180.000000	 51.123380	 36.143970	-51.699470	-25.331530	 3.129304	-9.414335	-28.620310	 2.123960	-4.255891	-2.635965	 4.993658	 6.788941	-5.165319	 0.784187	 3.516649	-5.225038	 0.466231	 0.424329	-0.000002	-3.783157	-0.089647	-3.453944	 4.936063	 0.148902	 89.782130	 78.203890	 180.000000	 1.113141	 13.477630	 107.060400	-17.623570	 2.798568	 9.530542	 3.208041	 1.583171	-6.267255	 6.112037	 4.509576	-0.364401	 4.968462	 1.518543	-9.347576	 5.168945	 0.703820	 2.021906
